<?xml version="1.0" standalone="no"?>
<!DOCTYPE svg PUBLIC "-//W3C//DTD SVG 20010904//EN"
 "http://www.w3.org/TR/2001/REC-SVG-20010904/DTD/svg10.dtd">
<svg version="1.0" xmlns="http://www.w3.org/2000/svg"
 width="32.000000pt" height="32.000000pt" viewBox="0 0 32.000000 32.000000"
 preserveAspectRatio="xMidYMid meet">

<g transform="translate(0.000000,32.000000) scale(0.100000,-0.100000)"
fill="#000000" stroke="none">
<path d="M24 262 c3 -6 2 -13 -4 -17 -14 -9 23 -78 56 -104 22 -17 23 -22 10
-26 -53 -17 -50 -14 -31 -35 20 -23 50 -26 59 -7 5 10 7 9 12 0 3 -7 13 -13
22 -13 14 0 15 2 2 10 -11 7 -9 11 13 19 36 14 37 14 59 -6 17 -15 18 -15 18
7 0 13 -7 32 -16 41 -16 17 -15 19 10 29 15 5 31 10 36 10 12 0 35 40 35 60 1
21 -17 31 -32 18 -7 -6 -13 -7 -13 -2 0 5 -4 4 -8 -1 -4 -6 -28 -23 -54 -38
-41 -24 -50 -26 -68 -15 -11 7 -20 22 -20 33 0 15 -2 17 -9 6 -7 -11 -11 -10
-20 5 -6 11 -11 15 -11 10 0 -4 -12 -1 -26 9 -15 9 -24 12 -20 7z"/>
</g>
</svg>
