<svg width="512" height="512" version="1.1" xmlns="http://www.w3.org/2000/svg" desc="Created with imagetracer.js version 1.2.6" ><path fill="rgb(0,0,0)" stroke="rgb(0,0,0)" stroke-width="1" opacity="0" d="M 0 0 L 512 0 L 512 512 L 0 512 L 0 0 Z M 44 77 L 42 78 L 37 85 L 37 92 L 53 122 L 53 123 Q 43 112 28 107 Q 23 110 21 117 L 28 122 Q 39 131 47 144 L 65 161 L 70 164 L 71 166 L 60 160 L 33 138 L 22 133 L 21 132 L 16 137 L 16 140 L 18 140 L 18 142 L 20 142 Q 19 145 22 144 L 41 165 L 40 164 L 34 165 Q 29 168 29 175 Q 39 185 52 193 L 44 196 Q 42 200 46 199 L 49 205 L 54 208 Q 56 207 55 210 L 69 221 L 65 222 L 60 229 L 78 239 L 78 240 L 75 239 L 72 240 L 71 243 Q 69 247 73 246 L 74 249 L 87 258 L 96 261 Q 97 265 91 263 Q 87 264 87 269 L 98 274 L 108 277 Q 110 276 109 279 L 106 281 L 107 288 L 113 290 L 119 290 L 119 295 L 121 296 L 134 297 Q 133 301 137 302 L 142 301 L 143 304 L 147 306 L 156 308 Q 174 309 186 303 L 187 304 L 126 334 L 101 342 L 71 346 L 70 349 L 71 365 L 74 369 L 84 370 L 81 380 L 82 387 Q 84 392 91 393 L 97 390 L 98 391 L 96 393 L 96 402 L 105 406 L 114 403 L 113 409 Q 117 416 131 414 L 138 420 Q 146 421 150 417 L 154 418 Q 161 419 164 416 L 172 406 L 182 385 L 189 379 Q 191 378 190 382 L 193 382 L 195 381 L 200 383 L 214 397 L 213 401 L 209 404 Q 201 402 199 407 L 209 410 L 213 408 Q 215 409 214 407 L 219 404 L 219 414 L 220 415 L 219 418 L 220 424 L 223 425 Q 224 429 221 431 L 222 432 L 225 428 L 224 425 L 227 421 L 225 414 L 228 413 Q 232 414 232 420 L 233 418 L 230 404 L 227 401 L 217 389 L 209 381 L 206 377 L 237 398 L 240 399 L 240 402 L 234 410 L 233 415 L 235 419 L 238 419 L 236 416 L 237 414 L 240 412 L 243 406 Q 242 403 246 404 Q 250 407 250 414 Q 251 417 256 416 L 257 418 L 257 426 L 255 429 L 260 426 Q 259 422 262 423 L 265 429 L 266 434 L 268 431 Q 269 425 265 424 L 266 422 L 266 419 L 252 400 L 247 394 L 238 390 L 223 380 L 220 376 Q 225 375 227 378 L 234 376 L 236 379 L 251 374 Q 252 372 254 375 L 261 374 L 284 366 L 306 354 L 313 352 L 332 353 Q 341 363 354 369 L 371 393 L 380 399 L 381 402 L 384 401 L 384 386 L 379 365 L 379 349 L 380 348 L 380 325 L 378 321 Q 379 318 376 319 Q 376 312 373 308 L 372 311 L 370 308 Q 357 292 336 285 Q 332 286 333 283 L 350 273 L 368 256 L 370 257 L 392 256 L 402 252 L 411 246 L 414 242 L 418 239 L 424 239 L 430 237 L 440 236 L 453 230 Q 469 219 473 196 L 472 194 L 489 174 L 496 162 Q 496 150 490 146 L 484 148 L 476 154 L 469 160 L 492 119 Q 493 110 488 107 L 485 107 L 476 113 Q 459 128 447 149 L 444 151 L 462 114 L 462 108 L 458 101 L 450 97 L 446 98 L 426 125 L 413 153 L 412 153 L 420 128 L 422 114 L 416 109 L 410 110 L 407 113 L 400 134 L 391 139 L 384 140 L 370 146 Q 366 149 367 155 L 361 152 L 355 152 L 349 154 L 346 157 L 341 168 L 335 167 Q 327 166 324 169 L 318 181 Q 314 183 306 182 L 298 193 L 298 195 L 284 196 L 277 207 L 269 205 L 255 205 L 253 208 L 264 212 L 267 212 L 266 214 L 239 213 L 238 212 L 236 215 L 243 218 L 259 222 L 232 224 Q 212 209 199 187 L 195 188 Q 191 190 192 196 L 188 187 L 188 179 L 189 178 Q 190 173 188 172 L 188 162 L 185 161 L 182 165 Q 184 170 181 172 L 187 193 L 189 196 L 189 197 L 179 183 L 176 174 L 171 146 L 171 144 L 172 140 Q 174 126 169 119 L 164 120 L 158 129 L 154 146 L 155 156 L 161 172 L 161 174 L 150 164 L 137 140 L 133 130 L 131 119 L 129 116 Q 129 104 126 97 L 123 98 L 120 102 L 117 114 L 117 132 L 123 147 L 126 150 L 112 143 Q 96 125 88 101 Q 85 94 82 100 Q 85 103 83 112 L 88 126 L 88 128 L 77 119 L 65 107 L 53 88 L 49 84 Q 50 81 48 82 L 44 77 Z " /><path fill="rgb(0,0,0)" stroke="rgb(0,0,0)" stroke-width="1" opacity="0" d="M 359.5 353 L 363 354.5 L 361.5 357 L 358 355.5 L 359.5 353 Z " /><path fill="rgb(0,0,0)" stroke="rgb(0,0,0)" stroke-width="1" opacity="0.796078431372549" d="M 43.5 77 L 44.5 79 L 43.5 77 Z " /><path fill="rgb(0,0,0)" stroke="rgb(0,0,0)" stroke-width="1" opacity="0.796078431372549" d="M 41.5 78 L 39.5 81 L 41.5 78 Z " /><path fill="rgb(0,0,0)" stroke="rgb(0,0,0)" stroke-width="1" opacity="0.796078431372549" d="M 50.5 85 L 52.5 88 L 50.5 85 Z " /><path fill="rgb(0,0,0)" stroke="rgb(0,0,0)" stroke-width="1" opacity="0.796078431372549" d="M 57.5 95 L 58.5 97 L 57.5 95 Z " /><path fill="rgb(0,0,0)" stroke="rgb(0,0,0)" stroke-width="1" opacity="0.796078431372549" d="M 447.5 97 L 450 97.5 L 447.5 98 L 447.5 97 Z " /><path fill="rgb(0,0,0)" stroke="rgb(0,0,0)" stroke-width="1" opacity="0.796078431372549" d="M 83.5 98 L 83 99.5 L 82.5 101 L 82 99.5 L 83.5 98 Z " /><path fill="rgb(0,0,0)" stroke="rgb(0,0,0)" stroke-width="1" opacity="0.796078431372549" d="M 122.5 98 L 121.5 100 L 122.5 98 Z " /><path fill="rgb(0,0,0)" stroke="rgb(0,0,0)" stroke-width="1" opacity="0.796078431372549" d="M 445.5 98 L 442.5 102 L 445.5 98 Z " /><path fill="rgb(0,0,0)" stroke="rgb(0,0,0)" stroke-width="1" opacity="0.796078431372549" d="M 88.5 103 L 90 105.5 L 88 104.5 L 88.5 103 Z " /><path fill="rgb(0,0,0)" stroke="rgb(0,0,0)" stroke-width="1" opacity="0.796078431372549" d="M 127.5 104 L 128 106.5 L 127 106.5 L 127.5 104 Z " /><path fill="rgb(0,0,0)" stroke="rgb(0,0,0)" stroke-width="1" opacity="0.796078431372549" d="M 440.5 104 L 439.5 106 L 440.5 104 Z " /><path fill="rgb(0,0,0)" stroke="rgb(0,0,0)" stroke-width="1" opacity="0.796078431372549" d="M 83.5 106 L 84 111.5 L 83 111.5 L 83.5 106 Z " /><path fill="rgb(0,0,0)" stroke="rgb(0,0,0)" stroke-width="1" opacity="0.796078431372549" d="M 27.5 107 L 30 107.5 Q 24.9 107.9 23.5 112 L 27.5 107 Z " /><path fill="rgb(0,0,0)" stroke="rgb(0,0,0)" stroke-width="1" opacity="0.796078431372549" d="M 438.5 107 L 436.5 110 L 438.5 107 Z " /><path fill="rgb(0,0,0)" stroke="rgb(0,0,0)" stroke-width="1" opacity="0.796078431372549" d="M 487.5 107 L 490.5 111 L 487.5 107 Z " /><path fill="rgb(0,0,0)" stroke="rgb(0,0,0)" stroke-width="1" opacity="0.796078431372549" d="M 90.5 108 L 92 110.5 L 91 110.5 L 90.5 108 Z " /><path fill="rgb(0,0,0)" stroke="rgb(0,0,0)" stroke-width="1" opacity="0.796078431372549" d="M 33.5 109 L 36 110.5 L 34.5 110 L 33.5 109 Z " /><path fill="rgb(0,0,0)" stroke="rgb(0,0,0)" stroke-width="1" opacity="0.796078431372549" d="M 67.5 109 L 68.5 111 L 67.5 109 Z " /><path fill="rgb(0,0,0)" stroke="rgb(0,0,0)" stroke-width="1" opacity="0.796078431372549" d="M 413.5 109 L 416 109.5 L 413.5 110 L 413.5 109 Z " /><path fill="rgb(0,0,0)" stroke="rgb(0,0,0)" stroke-width="1" opacity="0.796078431372549" d="M 481.5 109 L 480.5 111 L 481.5 109 Z " /><path fill="rgb(0,0,0)" stroke="rgb(0,0,0)" stroke-width="1" opacity="0.796078431372549" d="M 409.5 110 L 408 112.5 L 407.5 114 L 407 112.5 L 409.5 110 Z " /><path fill="rgb(0,0,0)" stroke="rgb(0,0,0)" stroke-width="1" opacity="0.796078431372549" d="M 418.5 110 L 419.5 112 L 418.5 110 Z " /><path fill="rgb(0,0,0)" stroke="rgb(0,0,0)" stroke-width="1" opacity="0.796078431372549" d="M 435.5 111 L 433.5 114 L 435.5 111 Z " /><path fill="rgb(0,0,0)" stroke="rgb(0,0,0)" stroke-width="1" opacity="0.796078431372549" d="M 478.5 111 L 477.5 113 L 478.5 111 Z " /><path fill="rgb(0,0,0)" stroke="rgb(0,0,0)" stroke-width="1" opacity="0.796078431372549" d="M 39.5 112 L 40.5 114 L 39.5 112 Z " /><path fill="rgb(0,0,0)" stroke="rgb(0,0,0)" stroke-width="1" opacity="0.796078431372549" d="M 70.5 113 L 74.5 118 L 70.5 113 Z " /><path fill="rgb(0,0,0)" stroke="rgb(0,0,0)" stroke-width="1" opacity="0.796078431372549" d="M 84.5 113 L 85 115.5 L 84 115.5 L 84.5 113 Z " /><path fill="rgb(0,0,0)" stroke="rgb(0,0,0)" stroke-width="1" opacity="0.796078431372549" d="M 117.5 113 L 118 124.5 L 117 124.5 L 117.5 113 Z " /><path fill="rgb(0,0,0)" stroke="rgb(0,0,0)" stroke-width="1" opacity="0.796078431372549" d="M 421.5 113 L 422 117.5 L 421 117.5 L 421.5 113 Z " /><path fill="rgb(0,0,0)" stroke="rgb(0,0,0)" stroke-width="1" opacity="0.796078431372549" d="M 475.5 113 L 465.5 124 L 475.5 113 Z " /><path fill="rgb(0,0,0)" stroke="rgb(0,0,0)" stroke-width="1" opacity="0.796078431372549" d="M 491.5 116 L 492 118.5 L 491 118.5 L 491.5 116 Z " /><path fill="rgb(0,0,0)" stroke="rgb(0,0,0)" stroke-width="1" opacity="0.796078431372549" d="M 47.5 118 L 52.5 123 L 54 122.5 Q 54.8 124.8 52.5 124 L 47.5 118 Z " /><path fill="rgb(0,0,0)" stroke="rgb(0,0,0)" stroke-width="1" opacity="0.796078431372549" d="M 430.5 118 L 429.5 120 L 430.5 118 Z " /><path fill="rgb(0,0,0)" stroke="rgb(0,0,0)" stroke-width="1" opacity="0.796078431372549" d="M 24.5 119 L 26.5 122 L 24.5 119 Z " /><path fill="rgb(0,0,0)" stroke="rgb(0,0,0)" stroke-width="1" opacity="0.796078431372549" d="M 51.5 119 L 52.5 121 L 51.5 119 Z " /><path fill="rgb(0,0,0)" stroke="rgb(0,0,0)" stroke-width="1" opacity="0.796078431372549" d="M 77.5 119 L 81.5 124 L 77.5 119 Z " /><path fill="rgb(0,0,0)" stroke="rgb(0,0,0)" stroke-width="1" opacity="0.796078431372549" d="M 165.5 119 Q 169.3 118.3 170 120.5 L 168.5 120 Q 164.5 120.8 165.5 119 Z " /><path fill="rgb(0,0,0)" stroke="rgb(0,0,0)" stroke-width="1" opacity="0.796078431372549" d="M 163.5 120 L 161.5 123 L 163.5 120 Z " /><path fill="rgb(0,0,0)" stroke="rgb(0,0,0)" stroke-width="1" opacity="0.796078431372549" d="M 420.5 120 L 421 123.5 L 420 123.5 L 420.5 120 Z " /><path fill="rgb(0,0,0)" stroke="rgb(0,0,0)" stroke-width="1" opacity="0.796078431372549" d="M 131.5 121 L 132 123.5 L 131 123.5 L 131.5 121 Z " /><path fill="rgb(0,0,0)" stroke="rgb(0,0,0)" stroke-width="1" opacity="0.796078431372549" d="M 427.5 123 L 426.5 125 L 427.5 123 Z " /><path fill="rgb(0,0,0)" stroke="rgb(0,0,0)" stroke-width="1" opacity="0.796078431372549" d="M 83.5 124 L 86.5 128 L 83.5 124 Z " /><path fill="rgb(0,0,0)" stroke="rgb(0,0,0)" stroke-width="1" opacity="0.796078431372549" d="M 32.5 126 L 33.5 128 L 32.5 126 Z " /><path fill="rgb(0,0,0)" stroke="rgb(0,0,0)" stroke-width="1" opacity="0.796078431372549" d="M 463.5 126 L 460.5 130 L 463.5 126 Z " /><path fill="rgb(0,0,0)" stroke="rgb(0,0,0)" stroke-width="1" opacity="0.796078431372549" d="M 100.5 127 L 101.5 129 L 100.5 127 Z " /><path fill="rgb(0,0,0)" stroke="rgb(0,0,0)" stroke-width="1" opacity="0.796078431372549" d="M 171.5 127 L 172 139.5 L 171 139.5 L 171.5 127 Z " /><path fill="rgb(0,0,0)" stroke="rgb(0,0,0)" stroke-width="1" opacity="0.796078431372549" d="M 117.5 128 L 118 131.5 L 117 131.5 L 117.5 128 Z " /><path fill="rgb(0,0,0)" stroke="rgb(0,0,0)" stroke-width="1" opacity="0.796078431372549" d="M 36.5 130 L 37.5 132 L 36.5 130 Z " /><path fill="rgb(0,0,0)" stroke="rgb(0,0,0)" stroke-width="1" opacity="0.796078431372549" d="M 102.5 130 L 103.5 132 L 102.5 130 Z " /><path fill="rgb(0,0,0)" stroke="rgb(0,0,0)" stroke-width="1" opacity="0.796078431372549" d="M 459.5 131 L 456.5 135 L 459.5 131 Z " /><path fill="rgb(0,0,0)" stroke="rgb(0,0,0)" stroke-width="1" opacity="0.796078431372549" d="M 20.5 132 L 19.5 134 L 20.5 132 Z " /><path fill="rgb(0,0,0)" stroke="rgb(0,0,0)" stroke-width="1" opacity="0.796078431372549" d="M 104.5 133 L 105.5 135 L 104.5 133 Z " /><path fill="rgb(0,0,0)" stroke="rgb(0,0,0)" stroke-width="1" opacity="0.796078431372549" d="M 483.5 133 L 482.5 135 L 483.5 133 Z " /><path fill="rgb(0,0,0)" stroke="rgb(0,0,0)" stroke-width="1" opacity="0.796078431372549" d="M 451.5 134 L 451 135.5 L 450.5 137 L 450 135.5 L 451.5 134 Z " /><path fill="rgb(0,0,0)" stroke="rgb(0,0,0)" stroke-width="1" opacity="0.796078431372549" d="M 17.5 135 L 16.5 137 L 17.5 135 Z " /><path fill="rgb(0,0,0)" stroke="rgb(0,0,0)" stroke-width="1" opacity="0.796078431372549" d="M 397.5 135 L 396.5 137 L 395 136.5 L 397.5 135 Z " /><path fill="rgb(0,0,0)" stroke="rgb(0,0,0)" stroke-width="1" opacity="0.796078431372549" d="M 106.5 136 L 107.5 138 L 106.5 136 Z " /><path fill="rgb(0,0,0)" stroke="rgb(0,0,0)" stroke-width="1" opacity="0.796078431372549" d="M 455.5 136 L 453.5 139 L 455.5 136 Z " /><path fill="rgb(0,0,0)" stroke="rgb(0,0,0)" stroke-width="1" opacity="0.796078431372549" d="M 42.5 137 L 45.5 141 L 42.5 137 Z " /><path fill="rgb(0,0,0)" stroke="rgb(0,0,0)" stroke-width="1" opacity="0.796078431372549" d="M 32.5 138 L 34.5 141 L 32.5 138 Z " /><path fill="rgb(0,0,0)" stroke="rgb(0,0,0)" stroke-width="1" opacity="0.796078431372549" d="M 480.5 138 L 479.5 140 L 480.5 138 Z " /><path fill="rgb(0,0,0)" stroke="rgb(0,0,0)" stroke-width="1" opacity="0.796078431372549" d="M 108.5 139 L 109.5 141 L 108.5 139 Z " /><path fill="rgb(0,0,0)" stroke="rgb(0,0,0)" stroke-width="1" opacity="0.796078431372549" d="M 155.5 139 L 156 142.5 L 155 142.5 L 155.5 139 Z " /><path fill="rgb(0,0,0)" stroke="rgb(0,0,0)" stroke-width="1" opacity="0.796078431372549" d="M 386.5 139 L 390 139.5 L 386.5 140 L 386.5 139 Z " /><path fill="rgb(0,0,0)" stroke="rgb(0,0,0)" stroke-width="1" opacity="0.796078431372549" d="M 452.5 140 L 451.5 142 L 452.5 140 Z " /><path fill="rgb(0,0,0)" stroke="rgb(0,0,0)" stroke-width="1" opacity="0.796078431372549" d="M 36.5 141 Q 39.5 142.5 36.5 144 L 36.5 141 Z " /><path fill="rgb(0,0,0)" stroke="rgb(0,0,0)" stroke-width="1" opacity="0.796078431372549" d="M 418.5 141 L 417.5 143 L 418.5 141 Z " /><path fill="rgb(0,0,0)" stroke="rgb(0,0,0)" stroke-width="1" opacity="0.796078431372549" d="M 138.5 142 L 139.5 144 L 138.5 142 Z " /><path fill="rgb(0,0,0)" stroke="rgb(0,0,0)" stroke-width="1" opacity="0.796078431372549" d="M 39.5 143 L 43.5 148 L 39.5 143 Z " /><path fill="rgb(0,0,0)" stroke="rgb(0,0,0)" stroke-width="1" opacity="0.796078431372549" d="M 47.5 143 L 52.5 149 L 47.5 143 Z " /><path fill="rgb(0,0,0)" stroke="rgb(0,0,0)" stroke-width="1" opacity="0.796078431372549" d="M 450.5 143 L 449.5 145 L 450.5 143 Z " /><path fill="rgb(0,0,0)" stroke="rgb(0,0,0)" stroke-width="1" opacity="0.796078431372549" d="M 154.5 145 L 155 151.5 L 154 151.5 L 154.5 145 Z " /><path fill="rgb(0,0,0)" stroke="rgb(0,0,0)" stroke-width="1" opacity="0.796078431372549" d="M 123.5 146 L 124.5 148 L 123.5 146 Z " /><path fill="rgb(0,0,0)" stroke="rgb(0,0,0)" stroke-width="1" opacity="0.796078431372549" d="M 140.5 146 L 142 148.5 L 141 148.5 L 140.5 146 Z " /><path fill="rgb(0,0,0)" stroke="rgb(0,0,0)" stroke-width="1" opacity="0.796078431372549" d="M 369.5 146 L 368.5 148 L 369.5 146 Z " /><path fill="rgb(0,0,0)" stroke="rgb(0,0,0)" stroke-width="1" opacity="0.796078431372549" d="M 487.5 146 Q 492.5 145.5 493 149.5 L 489.5 147 Q 486.5 147.5 487.5 146 Z " /><path fill="rgb(0,0,0)" stroke="rgb(0,0,0)" stroke-width="1" opacity="0.796078431372549" d="M 25.5 147 L 36.5 159 L 25.5 147 Z " /><path fill="rgb(0,0,0)" stroke="rgb(0,0,0)" stroke-width="1" opacity="0.796078431372549" d="M 475.5 147 L 474.5 149 L 475.5 147 Z " /><path fill="rgb(0,0,0)" stroke="rgb(0,0,0)" stroke-width="1" opacity="0.796078431372549" d="M 483.5 148 L 481.5 151 L 483.5 148 Z " /><path fill="rgb(0,0,0)" stroke="rgb(0,0,0)" stroke-width="1" opacity="0.796078431372549" d="M 46.5 149 L 49.5 153 L 46.5 149 Z " /><path fill="rgb(0,0,0)" stroke="rgb(0,0,0)" stroke-width="1" opacity="0.796078431372549" d="M 123.5 149 L 127 150.5 L 125.5 151 L 123.5 149 Z " /><path fill="rgb(0,0,0)" stroke="rgb(0,0,0)" stroke-width="1" opacity="0.796078431372549" d="M 367.5 149 L 368 153.5 L 367 153.5 L 367.5 149 Z " /><path fill="rgb(0,0,0)" stroke="rgb(0,0,0)" stroke-width="1" opacity="0.796078431372549" d="M 444.5 149 L 447 149.5 L 443.5 152 L 443.5 151 L 445 150.5 L 444.5 149 Z " /><path fill="rgb(0,0,0)" stroke="rgb(0,0,0)" stroke-width="1" opacity="0.796078431372549" d="M 142.5 150 L 144 152.5 L 142 151.5 L 142.5 150 Z " /><path fill="rgb(0,0,0)" stroke="rgb(0,0,0)" stroke-width="1" opacity="0.796078431372549" d="M 412.5 150 L 415 150.5 Q 412.9 153.8 412.5 150 Z " /><path fill="rgb(0,0,0)" stroke="rgb(0,0,0)" stroke-width="1" opacity="0.796078431372549" d="M 479.5 151 L 478.5 153 L 479.5 151 Z " /><path fill="rgb(0,0,0)" stroke="rgb(0,0,0)" stroke-width="1" opacity="0.796078431372549" d="M 56.5 152 L 64.5 161 L 56.5 152 Z " /><path fill="rgb(0,0,0)" stroke="rgb(0,0,0)" stroke-width="1" opacity="0.796078431372549" d="M 411.5 152 L 413 154.5 L 411 153.5 L 411.5 152 Z " /><path fill="rgb(0,0,0)" stroke="rgb(0,0,0)" stroke-width="1" opacity="0.796078431372549" d="M 472.5 152 L 471.5 154 L 472.5 152 Z " /><path fill="rgb(0,0,0)" stroke="rgb(0,0,0)" stroke-width="1" opacity="0.796078431372549" d="M 52.5 154 L 53.5 156 L 52.5 154 Z " /><path fill="rgb(0,0,0)" stroke="rgb(0,0,0)" stroke-width="1" opacity="0.796078431372549" d="M 348.5 154 L 346.5 157 L 348.5 154 Z " /><path fill="rgb(0,0,0)" stroke="rgb(0,0,0)" stroke-width="1" opacity="0.796078431372549" d="M 475.5 154 L 469.5 161 Q 467.3 161.8 468 159.5 L 469.5 160 L 475.5 154 Z " /><path fill="rgb(0,0,0)" stroke="rgb(0,0,0)" stroke-width="1" opacity="0.796078431372549" d="M 145.5 156 L 146.5 158 L 145.5 156 Z " /><path fill="rgb(0,0,0)" stroke="rgb(0,0,0)" stroke-width="1" opacity="0.796078431372549" d="M 410 156 L 412 156.5 L 410 157.5 L 410 156 Z " /><path fill="rgb(0,0,0)" stroke="rgb(0,0,0)" stroke-width="1" opacity="0.796078431372549" d="M 56.5 157 L 57.5 159 L 56.5 157 Z " /><path fill="rgb(0,0,0)" stroke="rgb(0,0,0)" stroke-width="1" opacity="0.796078431372549" d="M 173.5 158 L 174 160.5 L 173 160.5 L 173.5 158 Z " /><path fill="rgb(0,0,0)" stroke="rgb(0,0,0)" stroke-width="1" opacity="0.796078431372549" d="M 147.5 159 L 148.5 161 L 147.5 159 Z " /><path fill="rgb(0,0,0)" stroke="rgb(0,0,0)" stroke-width="1" opacity="0.796078431372549" d="M 62.5 161 L 63.5 163 L 62.5 161 Z " /><path fill="rgb(0,0,0)" stroke="rgb(0,0,0)" stroke-width="1" opacity="0.796078431372549" d="M 66.5 161 L 69 163.5 L 68.5 166 L 66.5 161 Z " /><path fill="rgb(0,0,0)" stroke="rgb(0,0,0)" stroke-width="1" opacity="0.796078431372549" d="M 184.5 161 L 183.5 163 L 184.5 161 Z " /><path fill="rgb(0,0,0)" stroke="rgb(0,0,0)" stroke-width="1" opacity="0.796078431372549" d="M 187.5 161 L 188 163.5 L 187 163.5 L 187.5 161 Z " /><path fill="rgb(0,0,0)" stroke="rgb(0,0,0)" stroke-width="1" opacity="0.796078431372549" d="M 39.5 162 Q 42.5 163.5 39.5 165 L 35 164.5 L 40 163.5 L 39.5 162 Z " /><path fill="rgb(0,0,0)" stroke="rgb(0,0,0)" stroke-width="1" opacity="0.796078431372549" d="M 174.5 163 L 175 165.5 L 174 165.5 L 174.5 163 Z " /><path fill="rgb(0,0,0)" stroke="rgb(0,0,0)" stroke-width="1" opacity="0.796078431372549" d="M 70.5 164 L 71.5 166 L 70.5 164 Z " /><path fill="rgb(0,0,0)" stroke="rgb(0,0,0)" stroke-width="1" opacity="0.796078431372549" d="M 182.5 164 L 183 166.5 L 182 166.5 L 182.5 164 Z " /><path fill="rgb(0,0,0)" stroke="rgb(0,0,0)" stroke-width="1" opacity="0.796078431372549" d="M 33.5 165 L 31.5 168 L 33.5 165 Z " /><path fill="rgb(0,0,0)" stroke="rgb(0,0,0)" stroke-width="1" opacity="0.796078431372549" d="M 151.5 165 L 160.5 174 L 162 173.5 Q 162.8 175.8 160.5 175 L 151.5 165 Z " /><path fill="rgb(0,0,0)" stroke="rgb(0,0,0)" stroke-width="1" opacity="0.796078431372549" d="M 492.5 167 L 491.5 169 L 492.5 167 Z " /><path fill="rgb(0,0,0)" stroke="rgb(0,0,0)" stroke-width="1" opacity="0.796078431372549" d="M 175.5 169 L 176 171.5 L 175 171.5 L 175.5 169 Z " /><path fill="rgb(0,0,0)" stroke="rgb(0,0,0)" stroke-width="1" opacity="0.796078431372549" d="M 490.5 170 L 489.5 172 L 490.5 170 Z " /><path fill="rgb(0,0,0)" stroke="rgb(0,0,0)" stroke-width="1" opacity="0.796078431372549" d="M 181.5 171 L 182 174.5 L 181 174.5 L 181.5 171 Z " /><path fill="rgb(0,0,0)" stroke="rgb(0,0,0)" stroke-width="1" opacity="0.796078431372549" d="M 29.5 172 L 30 174.5 L 29 174.5 L 29.5 172 Z " /><path fill="rgb(0,0,0)" stroke="rgb(0,0,0)" stroke-width="1" opacity="0.796078431372549" d="M 188.5 172 L 189 177.5 L 188 177.5 L 188.5 172 Z " /><path fill="rgb(0,0,0)" stroke="rgb(0,0,0)" stroke-width="1" opacity="0.796078431372549" d="M 488.5 173 L 486.5 176 L 488.5 173 Z " /><path fill="rgb(0,0,0)" stroke="rgb(0,0,0)" stroke-width="1" opacity="0.796078431372549" d="M 321.5 175 L 320.5 177 L 321.5 175 Z " /><path fill="rgb(0,0,0)" stroke="rgb(0,0,0)" stroke-width="1" opacity="0.796078431372549" d="M 33.5 178 L 34.5 180 L 33.5 178 Z " /><path fill="rgb(0,0,0)" stroke="rgb(0,0,0)" stroke-width="1" opacity="0.796078431372549" d="M 319.5 178 L 318.5 180 L 319.5 178 Z " /><path fill="rgb(0,0,0)" stroke="rgb(0,0,0)" stroke-width="1" opacity="0.796078431372549" d="M 483.5 179 L 482.5 181 L 483.5 179 Z " /><path fill="rgb(0,0,0)" stroke="rgb(0,0,0)" stroke-width="1" opacity="0.796078431372549" d="M 36.5 180 L 39.5 184 L 36.5 180 Z " /><path fill="rgb(0,0,0)" stroke="rgb(0,0,0)" stroke-width="1" opacity="0.796078431372549" d="M 305.5 182 L 307 182.5 L 304.5 184 L 305.5 182 Z " /><path fill="rgb(0,0,0)" stroke="rgb(0,0,0)" stroke-width="1" opacity="0.796078431372549" d="M 480.5 183 L 476.5 188 L 480.5 183 Z " /><path fill="rgb(0,0,0)" stroke="rgb(0,0,0)" stroke-width="1" opacity="0.796078431372549" d="M 41.5 184 L 43.5 187 L 41.5 184 Z " /><path fill="rgb(0,0,0)" stroke="rgb(0,0,0)" stroke-width="1" opacity="0.796078431372549" d="M 303.5 185 L 302.5 187 L 303.5 185 Z " /><path fill="rgb(0,0,0)" stroke="rgb(0,0,0)" stroke-width="1" opacity="0.796078431372549" d="M 181.5 187 L 182.5 189 L 181.5 187 Z " /><path fill="rgb(0,0,0)" stroke="rgb(0,0,0)" stroke-width="1" opacity="0.796078431372549" d="M 196.5 187 L 200 188.5 L 198.5 188 Q 195.5 188.5 196.5 187 Z " /><path fill="rgb(0,0,0)" stroke="rgb(0,0,0)" stroke-width="1" opacity="0.796078431372549" d="M 194.5 188 L 193.5 190 L 194.5 188 Z " /><path fill="rgb(0,0,0)" stroke="rgb(0,0,0)" stroke-width="1" opacity="0.796078431372549" d="M 301.5 188 L 300.5 190 L 301.5 188 Z " /><path fill="rgb(0,0,0)" stroke="rgb(0,0,0)" stroke-width="1" opacity="0.796078431372549" d="M 183.5 190 L 184.5 192 L 183.5 190 Z " /><path fill="rgb(0,0,0)" stroke="rgb(0,0,0)" stroke-width="1" opacity="0.796078431372549" d="M 299.5 191 L 298.5 193 L 299.5 191 Z " /><path fill="rgb(0,0,0)" stroke="rgb(0,0,0)" stroke-width="1" opacity="0.796078431372549" d="M 185.5 193 L 186.5 195 L 185.5 193 Z " /><path fill="rgb(0,0,0)" stroke="rgb(0,0,0)" stroke-width="1" opacity="0.796078431372549" d="M 203.5 195 L 207.5 200 L 203.5 195 Z " /><path fill="rgb(0,0,0)" stroke="rgb(0,0,0)" stroke-width="1" opacity="0.796078431372549" d="M 287.5 195 L 291 195.5 L 287.5 196 L 287.5 195 Z " /><path fill="rgb(0,0,0)" stroke="rgb(0,0,0)" stroke-width="1" opacity="0.796078431372549" d="M 293.5 195 L 298 195.5 L 293.5 196 L 293.5 195 Z " /><path fill="rgb(0,0,0)" stroke="rgb(0,0,0)" stroke-width="1" opacity="0.796078431372549" d="M 189.5 196 L 190 198 L 188 197.5 L 189.5 196 Z " /><path fill="rgb(0,0,0)" stroke="rgb(0,0,0)" stroke-width="1" opacity="0.796078431372549" d="M 283.5 196 L 285 196.5 L 282.5 198 L 283.5 196 Z " /><path fill="rgb(0,0,0)" stroke="rgb(0,0,0)" stroke-width="1" opacity="0.796078431372549" d="M 281.5 199 L 280.5 201 L 281.5 199 Z " /><path fill="rgb(0,0,0)" stroke="rgb(0,0,0)" stroke-width="1" opacity="0.796078431372549" d="M 47.5 201 L 50 204.5 L 49 204.5 L 47.5 201 Z " /><path fill="rgb(0,0,0)" stroke="rgb(0,0,0)" stroke-width="1" opacity="0.796078431372549" d="M 51.5 205 L 53.5 208 L 51.5 205 Z " /><path fill="rgb(0,0,0)" stroke="rgb(0,0,0)" stroke-width="1" opacity="0.796078431372549" d="M 254.5 205 L 256 205.5 L 254 206 L 255 208.5 L 253 207.5 L 254.5 205 Z " /><path fill="rgb(0,0,0)" stroke="rgb(0,0,0)" stroke-width="1" opacity="0.796078431372549" d="M 265.5 205 L 269 205.5 L 265.5 206 L 265.5 205 Z " /><path fill="rgb(0,0,0)" stroke="rgb(0,0,0)" stroke-width="1" opacity="0.796078431372549" d="M 213.5 206 L 219.5 213 L 213.5 206 Z " /><path fill="rgb(0,0,0)" stroke="rgb(0,0,0)" stroke-width="1" opacity="0.796078431372549" d="M 271.5 206 L 274 206.5 L 271.5 207 L 271.5 206 Z " /><path fill="rgb(0,0,0)" stroke="rgb(0,0,0)" stroke-width="1" opacity="0.796078431372549" d="M 58.5 211 L 60.5 214 L 58.5 211 Z " /><path fill="rgb(0,0,0)" stroke="rgb(0,0,0)" stroke-width="1" opacity="0.796078431372549" d="M 237.5 212 L 238.5 213 L 257 213.5 L 238 214 L 237.5 216 L 236.5 214 L 238 213.5 L 237.5 212 Z " /><path fill="rgb(0,0,0)" stroke="rgb(0,0,0)" stroke-width="1" opacity="0.796078431372549" d="M 267.5 212 L 268 214 L 266 213.5 L 267.5 212 Z " /><path fill="rgb(0,0,0)" stroke="rgb(0,0,0)" stroke-width="1" opacity="0.796078431372549" d="M 466.5 213 L 465.5 215 L 466.5 213 Z " /><path fill="rgb(0,0,0)" stroke="rgb(0,0,0)" stroke-width="1" opacity="0.796078431372549" d="M 62.5 214 L 64.5 217 L 62.5 214 Z " /><path fill="rgb(0,0,0)" stroke="rgb(0,0,0)" stroke-width="1" opacity="0.796078431372549" d="M 221.5 214 L 231.5 224 L 234 224.5 L 231.5 225 L 221.5 214 Z " /><path fill="rgb(0,0,0)" stroke="rgb(0,0,0)" stroke-width="1" opacity="0.796078431372549" d="M 66.5 217 L 69.5 221 L 66.5 217 Z " /><path fill="rgb(0,0,0)" stroke="rgb(0,0,0)" stroke-width="1" opacity="0.796078431372549" d="M 242.5 217 L 245 217.5 L 242.5 218 L 242.5 217 Z " /><path fill="rgb(0,0,0)" stroke="rgb(0,0,0)" stroke-width="1" opacity="0.796078431372549" d="M 462.5 219 L 461.5 221 L 462.5 219 Z " /><path fill="rgb(0,0,0)" stroke="rgb(0,0,0)" stroke-width="1" opacity="0.796078431372549" d="M 64.5 222 L 62.5 225 L 64.5 222 Z " /><path fill="rgb(0,0,0)" stroke="rgb(0,0,0)" stroke-width="1" opacity="0.796078431372549" d="M 249.5 222 L 258 222.5 L 249.5 223 L 249.5 222 Z " /><path fill="rgb(0,0,0)" stroke="rgb(0,0,0)" stroke-width="1" opacity="0.796078431372549" d="M 237.5 223 L 241 223.5 L 237.5 224 L 237.5 223 Z " /><path fill="rgb(0,0,0)" stroke="rgb(0,0,0)" stroke-width="1" opacity="0.796078431372549" d="M 458.5 223 L 452.5 230 L 458.5 223 Z " /><path fill="rgb(0,0,0)" stroke="rgb(0,0,0)" stroke-width="1" opacity="0.796078431372549" d="M 62.5 229 L 67 232.5 L 65.5 232 L 62.5 229 Z " /><path fill="rgb(0,0,0)" stroke="rgb(0,0,0)" stroke-width="1" opacity="0.796078431372549" d="M 243.5 232 L 244.5 234 L 243.5 232 Z " /><path fill="rgb(0,0,0)" stroke="rgb(0,0,0)" stroke-width="1" opacity="0.796078431372549" d="M 440.5 234 L 442 234.5 L 438.5 236 L 438.5 235 L 440.5 234 Z " /><path fill="rgb(0,0,0)" stroke="rgb(0,0,0)" stroke-width="1" opacity="0.796078431372549" d="M 433.5 236 L 436 236.5 L 433.5 237 L 433.5 236 Z " /><path fill="rgb(0,0,0)" stroke="rgb(0,0,0)" stroke-width="1" opacity="0.796078431372549" d="M 75.5 237 L 76.5 239 L 75.5 237 Z " /><path fill="rgb(0,0,0)" stroke="rgb(0,0,0)" stroke-width="1" opacity="0.796078431372549" d="M 421.5 238 L 424 238.5 L 421.5 239 L 421.5 238 Z " /><path fill="rgb(0,0,0)" stroke="rgb(0,0,0)" stroke-width="1" opacity="0.796078431372549" d="M 413.5 242 L 410.5 246 L 413.5 242 Z " /><path fill="rgb(0,0,0)" stroke="rgb(0,0,0)" stroke-width="1" opacity="0.796078431372549" d="M 71.5 245 L 74 246.5 L 72.5 246 L 71.5 245 Z " /><path fill="rgb(0,0,0)" stroke="rgb(0,0,0)" stroke-width="1" opacity="0.796078431372549" d="M 408.5 246 L 406.5 249 L 408.5 246 Z " /><path fill="rgb(0,0,0)" stroke="rgb(0,0,0)" stroke-width="1" opacity="0.796078431372549" d="M 402.5 250 L 401.5 252 L 402.5 250 Z " /><path fill="rgb(0,0,0)" stroke="rgb(0,0,0)" stroke-width="1" opacity="0.796078431372549" d="M 79.5 252 L 80.5 254 L 79.5 252 Z " /><path fill="rgb(0,0,0)" stroke="rgb(0,0,0)" stroke-width="1" opacity="0.796078431372549" d="M 82.5 254 L 83.5 256 L 82.5 254 Z " /><path fill="rgb(0,0,0)" stroke="rgb(0,0,0)" stroke-width="1" opacity="0.796078431372549" d="M 388.5 255 L 392 255.5 L 388.5 256 L 388.5 255 Z " /><path fill="rgb(0,0,0)" stroke="rgb(0,0,0)" stroke-width="1" opacity="0.796078431372549" d="M 85.5 256 L 88 257.5 L 86.5 258 L 85.5 256 Z " /><path fill="rgb(0,0,0)" stroke="rgb(0,0,0)" stroke-width="1" opacity="0.796078431372549" d="M 369.5 256 L 375 256.5 L 369.5 257 L 369.5 256 Z " /><path fill="rgb(0,0,0)" stroke="rgb(0,0,0)" stroke-width="1" opacity="0.796078431372549" d="M 380.5 256 L 383 256.5 L 380.5 257 L 380.5 256 Z " /><path fill="rgb(0,0,0)" stroke="rgb(0,0,0)" stroke-width="1" opacity="0.796078431372549" d="M 361.5 260 L 357.5 265 L 361.5 260 Z " /><path fill="rgb(0,0,0)" stroke="rgb(0,0,0)" stroke-width="1" opacity="0.796078431372549" d="M 90.5 263 L 92 263.5 L 89.5 265 L 90.5 263 Z " /><path fill="rgb(0,0,0)" stroke="rgb(0,0,0)" stroke-width="1" opacity="0.796078431372549" d="M 352.5 269 L 349.5 273 L 352.5 269 Z " /><path fill="rgb(0,0,0)" stroke="rgb(0,0,0)" stroke-width="1" opacity="0.796078431372549" d="M 94.5 271 L 99 273.5 L 97.5 274 L 94.5 271 Z " /><path fill="rgb(0,0,0)" stroke="rgb(0,0,0)" stroke-width="1" opacity="0.796078431372549" d="M 347.5 273 L 346.5 275 L 347.5 273 Z " /><path fill="rgb(0,0,0)" stroke="rgb(0,0,0)" stroke-width="1" opacity="0.796078431372549" d="M 109 277 Q 112 276 111 279 L 107.5 280 L 107.5 279 Q 110.1 279.7 109 277 Z " /><path fill="rgb(0,0,0)" stroke="rgb(0,0,0)" stroke-width="1" opacity="0.796078431372549" d="M 340.5 278 L 339.5 280 L 340.5 278 Z " /><path fill="rgb(0,0,0)" stroke="rgb(0,0,0)" stroke-width="1" opacity="0.796078431372549" d="M 349.5 291 L 350.5 293 L 349.5 291 Z " /><path fill="rgb(0,0,0)" stroke="rgb(0,0,0)" stroke-width="1" opacity="0.796078431372549" d="M 352.5 293 L 353.5 295 L 352.5 293 Z " /><path fill="rgb(0,0,0)" stroke="rgb(0,0,0)" stroke-width="1" opacity="0.796078431372549" d="M 119.5 294 L 123 295.5 L 120.5 296 L 119.5 294 Z " /><path fill="rgb(0,0,0)" stroke="rgb(0,0,0)" stroke-width="1" opacity="0.796078431372549" d="M 355.5 295 L 356.5 297 L 355.5 295 Z " /><path fill="rgb(0,0,0)" stroke="rgb(0,0,0)" stroke-width="1" opacity="0.796078431372549" d="M 127.5 296 L 131 296.5 L 127.5 297 L 127.5 296 Z " /><path fill="rgb(0,0,0)" stroke="rgb(0,0,0)" stroke-width="1" opacity="0.796078431372549" d="M 358.5 297 L 360.5 300 L 358.5 297 Z " /><path fill="rgb(0,0,0)" stroke="rgb(0,0,0)" stroke-width="1" opacity="0.796078431372549" d="M 192.5 300 L 194 300.5 L 189 303 Q 187.8 300 191.5 301 L 192.5 300 Z " /><path fill="rgb(0,0,0)" stroke="rgb(0,0,0)" stroke-width="1" opacity="0.796078431372549" d="M 136.5 301 L 140 301.5 L 136.5 302 L 136.5 301 Z " /><path fill="rgb(0,0,0)" stroke="rgb(0,0,0)" stroke-width="1" opacity="0.796078431372549" d="M 142.5 301 L 145 304.5 L 143 303.5 L 142.5 301 Z " /><path fill="rgb(0,0,0)" stroke="rgb(0,0,0)" stroke-width="1" opacity="0.796078431372549" d="M 363.5 301 L 365.5 304 L 363.5 301 Z " /><path fill="rgb(0,0,0)" stroke="rgb(0,0,0)" stroke-width="1" opacity="0.796078431372549" d="M 186.5 302 Q 188.8 301.3 188 303.5 L 186.5 302 Z " /><path fill="rgb(0,0,0)" stroke="rgb(0,0,0)" stroke-width="1" opacity="0.796078431372549" d="M 184.5 303 L 185.5 305 L 184.5 303 Z " /><path fill="rgb(0,0,0)" stroke="rgb(0,0,0)" stroke-width="1" opacity="0.796078431372549" d="M 171.5 306 L 174 306.5 L 171.5 307 L 171.5 306 Z " /><path fill="rgb(0,0,0)" stroke="rgb(0,0,0)" stroke-width="1" opacity="0.796078431372549" d="M 155.5 307 L 168 307.5 L 155.5 308 L 155.5 307 Z " /><path fill="rgb(0,0,0)" stroke="rgb(0,0,0)" stroke-width="1" opacity="0.796078431372549" d="M 176.5 308 L 178 308.5 L 174.5 310 L 174.5 309 L 176.5 308 Z " /><path fill="rgb(0,0,0)" stroke="rgb(0,0,0)" stroke-width="1" opacity="0.796078431372549" d="M 372.5 308 Q 375.3 309.3 373 310.5 Q 373.8 312.8 371.5 312 L 372 310.5 L 372.5 308 Z " /><path fill="rgb(0,0,0)" stroke="rgb(0,0,0)" stroke-width="1" opacity="0.796078431372549" d="M 375.5 316 L 376 319 L 378 319.5 L 376.5 320 Q 374 319 375.5 316 Z " /><path fill="rgb(0,0,0)" stroke="rgb(0,0,0)" stroke-width="1" opacity="0.796078431372549" d="M 150.5 321 L 149.5 323 L 150.5 321 Z " /><path fill="rgb(0,0,0)" stroke="rgb(0,0,0)" stroke-width="1" opacity="0.796078431372549" d="M 379.5 324 L 380 335.5 L 379 335.5 L 379.5 324 Z " /><path fill="rgb(0,0,0)" stroke="rgb(0,0,0)" stroke-width="1" opacity="0.796078431372549" d="M 379.5 339 L 380 347.5 L 379 347.5 L 379.5 339 Z " /><path fill="rgb(0,0,0)" stroke="rgb(0,0,0)" stroke-width="1" opacity="0.796078431372549" d="M 84.5 344 L 87 344.5 L 84.5 345 L 84.5 344 Z " /><path fill="rgb(0,0,0)" stroke="rgb(0,0,0)" stroke-width="1" opacity="0.796078431372549" d="M 76.5 345 L 80 345.5 L 76.5 346 L 76.5 345 Z " /><path fill="rgb(0,0,0)" stroke="rgb(0,0,0)" stroke-width="1" opacity="0.796078431372549" d="M 314.5 351 L 321 351.5 L 314.5 352 L 314.5 351 Z " /><path fill="rgb(0,0,0)" stroke="rgb(0,0,0)" stroke-width="1" opacity="0.796078431372549" d="M 325.5 352 L 330 352.5 L 325.5 353 L 325.5 352 Z " /><path fill="rgb(0,0,0)" stroke="rgb(0,0,0)" stroke-width="1" opacity="0.796078431372549" d="M 332.5 353 L 334.5 356 L 332.5 353 Z " /><path fill="rgb(0,0,0)" stroke="rgb(0,0,0)" stroke-width="1" opacity="0.796078431372549" d="M 378.5 355 L 379 362.5 L 378 362.5 L 378.5 355 Z " /><path fill="rgb(0,0,0)" stroke="rgb(0,0,0)" stroke-width="1" opacity="0.796078431372549" d="M 300.5 356 L 299.5 358 L 300.5 356 Z " /><path fill="rgb(0,0,0)" stroke="rgb(0,0,0)" stroke-width="1" opacity="0.796078431372549" d="M 358.5 356 L 361.5 357 L 363 356.5 L 359.5 358 L 358.5 356 Z " /><path fill="rgb(0,0,0)" stroke="rgb(0,0,0)" stroke-width="1" opacity="0.796078431372549" d="M 337.5 357 L 339.5 360 L 337.5 357 Z " /><path fill="rgb(0,0,0)" stroke="rgb(0,0,0)" stroke-width="1" opacity="0.796078431372549" d="M 342.5 361 L 344.5 364 L 342.5 361 Z " /><path fill="rgb(0,0,0)" stroke="rgb(0,0,0)" stroke-width="1" opacity="0.796078431372549" d="M 71.5 362 L 73 365.5 L 71 364.5 L 71.5 362 Z " /><path fill="rgb(0,0,0)" stroke="rgb(0,0,0)" stroke-width="1" opacity="0.796078431372549" d="M 346.5 364 L 347.5 366 L 346.5 364 Z " /><path fill="rgb(0,0,0)" stroke="rgb(0,0,0)" stroke-width="1" opacity="0.796078431372549" d="M 351.5 367 L 352.5 369 L 351.5 367 Z " /><path fill="rgb(0,0,0)" stroke="rgb(0,0,0)" stroke-width="1" opacity="0.796078431372549" d="M 354.5 369 L 356.5 372 L 354.5 369 Z " /><path fill="rgb(0,0,0)" stroke="rgb(0,0,0)" stroke-width="1" opacity="0.796078431372549" d="M 252.5 373 L 257 374.5 L 253.5 375 L 252.5 373 Z " /><path fill="rgb(0,0,0)" stroke="rgb(0,0,0)" stroke-width="1" opacity="0.796078431372549" d="M 235.5 375 L 235 376.5 L 234.5 378 L 234 376.5 L 235.5 375 Z " /><path fill="rgb(0,0,0)" stroke="rgb(0,0,0)" stroke-width="1" opacity="0.796078431372549" d="M 204.5 376 L 205.5 378 Q 206.7 375.8 208 378.5 Q 206 382 204 377.5 L 204.5 376 Z " /><path fill="rgb(0,0,0)" stroke="rgb(0,0,0)" stroke-width="1" opacity="0.796078431372549" d="M 218.5 376 L 220.5 379 L 218.5 376 Z " /><path fill="rgb(0,0,0)" stroke="rgb(0,0,0)" stroke-width="1" opacity="0.796078431372549" d="M 224.5 376 L 228 377.5 L 226.5 378 L 224.5 376 Z " /><path fill="rgb(0,0,0)" stroke="rgb(0,0,0)" stroke-width="1" opacity="0.796078431372549" d="M 359.5 376 L 361.5 379 L 359.5 376 Z " /><path fill="rgb(0,0,0)" stroke="rgb(0,0,0)" stroke-width="1" opacity="0.796078431372549" d="M 81.5 379 L 82 384.5 L 81 384.5 L 81.5 379 Z " /><path fill="rgb(0,0,0)" stroke="rgb(0,0,0)" stroke-width="1" opacity="0.796078431372549" d="M 187.5 379 L 186.5 381 L 187.5 379 Z " /><path fill="rgb(0,0,0)" stroke="rgb(0,0,0)" stroke-width="1" opacity="0.796078431372549" d="M 212.5 380 L 213.5 382 L 212.5 380 Z " /><path fill="rgb(0,0,0)" stroke="rgb(0,0,0)" stroke-width="1" opacity="0.796078431372549" d="M 223.5 380 L 224.5 382 L 223.5 380 Z " /><path fill="rgb(0,0,0)" stroke="rgb(0,0,0)" stroke-width="1" opacity="0.796078431372549" d="M 362.5 380 L 363.5 382 L 362.5 380 Z " /><path fill="rgb(0,0,0)" stroke="rgb(0,0,0)" stroke-width="1" opacity="0.796078431372549" d="M 184.5 381 L 183.5 383 L 184.5 381 Z " /><path fill="rgb(0,0,0)" stroke="rgb(0,0,0)" stroke-width="1" opacity="0.796078431372549" d="M 197.5 381 L 198.5 383 L 197.5 381 Z " /><path fill="rgb(0,0,0)" stroke="rgb(0,0,0)" stroke-width="1" opacity="0.796078431372549" d="M 209.5 381 L 216.5 389 L 209.5 381 Z " /><path fill="rgb(0,0,0)" stroke="rgb(0,0,0)" stroke-width="1" opacity="0.796078431372549" d="M 226.5 382 L 227.5 384 L 226.5 382 Z " /><path fill="rgb(0,0,0)" stroke="rgb(0,0,0)" stroke-width="1" opacity="0.796078431372549" d="M 200.5 383 L 206.5 390 L 200.5 383 Z " /><path fill="rgb(0,0,0)" stroke="rgb(0,0,0)" stroke-width="1" opacity="0.796078431372549" d="M 216.5 383 L 217.5 385 L 216.5 383 Z " /><path fill="rgb(0,0,0)" stroke="rgb(0,0,0)" stroke-width="1" opacity="0.796078431372549" d="M 364.5 383 L 366.5 386 L 364.5 383 Z " /><path fill="rgb(0,0,0)" stroke="rgb(0,0,0)" stroke-width="1" opacity="0.796078431372549" d="M 229.5 384 L 230.5 386 L 229.5 384 Z " /><path fill="rgb(0,0,0)" stroke="rgb(0,0,0)" stroke-width="1" opacity="0.796078431372549" d="M 181.5 385 L 180.5 387 L 181.5 385 Z " /><path fill="rgb(0,0,0)" stroke="rgb(0,0,0)" stroke-width="1" opacity="0.796078431372549" d="M 383.5 385 L 384 387.5 L 383 387.5 L 383.5 385 Z " /><path fill="rgb(0,0,0)" stroke="rgb(0,0,0)" stroke-width="1" opacity="0.796078431372549" d="M 82.5 386 L 84.5 389 L 82.5 386 Z " /><path fill="rgb(0,0,0)" stroke="rgb(0,0,0)" stroke-width="1" opacity="0.796078431372549" d="M 220.5 386 L 221.5 388 L 220.5 386 Z " /><path fill="rgb(0,0,0)" stroke="rgb(0,0,0)" stroke-width="1" opacity="0.796078431372549" d="M 232.5 386 L 233.5 388 L 232.5 386 Z " /><path fill="rgb(0,0,0)" stroke="rgb(0,0,0)" stroke-width="1" opacity="0.796078431372549" d="M 367.5 387 L 369.5 390 L 367.5 387 Z " /><path fill="rgb(0,0,0)" stroke="rgb(0,0,0)" stroke-width="1" opacity="0.796078431372549" d="M 223.5 388 L 224.5 390 L 223.5 388 Z " /><path fill="rgb(0,0,0)" stroke="rgb(0,0,0)" stroke-width="1" opacity="0.796078431372549" d="M 235.5 388 L 236.5 390 L 235.5 388 Z " /><path fill="rgb(0,0,0)" stroke="rgb(0,0,0)" stroke-width="1" opacity="0.796078431372549" d="M 86.5 390 L 89 391.5 L 87.5 392 L 86.5 390 Z " /><path fill="rgb(0,0,0)" stroke="rgb(0,0,0)" stroke-width="1" opacity="0.796078431372549" d="M 95.5 390 L 94.5 392 L 95.5 390 Z " /><path fill="rgb(0,0,0)" stroke="rgb(0,0,0)" stroke-width="1" opacity="0.796078431372549" d="M 226.5 390 L 227.5 392 L 226.5 390 Z " /><path fill="rgb(0,0,0)" stroke="rgb(0,0,0)" stroke-width="1" opacity="0.796078431372549" d="M 97.5 391 L 97 392.5 L 96.5 395 L 96 392.5 L 97.5 391 Z " /><path fill="rgb(0,0,0)" stroke="rgb(0,0,0)" stroke-width="1" opacity="0.796078431372549" d="M 218.5 391 L 220.5 394 L 218.5 391 Z " /><path fill="rgb(0,0,0)" stroke="rgb(0,0,0)" stroke-width="1" opacity="0.796078431372549" d="M 90.5 392 L 93 392.5 L 90.5 393 L 90.5 392 Z " /><path fill="rgb(0,0,0)" stroke="rgb(0,0,0)" stroke-width="1" opacity="0.796078431372549" d="M 229.5 392 L 230.5 394 L 229.5 392 Z " /><path fill="rgb(0,0,0)" stroke="rgb(0,0,0)" stroke-width="1" opacity="0.796078431372549" d="M 371.5 392 L 375.5 397 L 371.5 392 Z " /><path fill="rgb(0,0,0)" stroke="rgb(0,0,0)" stroke-width="1" opacity="0.796078431372549" d="M 232.5 394 L 233.5 396 L 232.5 394 Z " /><path fill="rgb(0,0,0)" stroke="rgb(0,0,0)" stroke-width="1" opacity="0.796078431372549" d="M 235.5 396 L 236.5 398 L 235.5 396 Z " /><path fill="rgb(0,0,0)" stroke="rgb(0,0,0)" stroke-width="1" opacity="0.796078431372549" d="M 214.5 397 L 215 398.5 L 213 399.5 L 214.5 397 Z " /><path fill="rgb(0,0,0)" stroke="rgb(0,0,0)" stroke-width="1" opacity="0.796078431372549" d="M 223.5 397 L 224.5 399 L 223.5 397 Z " /><path fill="rgb(0,0,0)" stroke="rgb(0,0,0)" stroke-width="1" opacity="0.796078431372549" d="M 383.5 397 L 384 400.5 L 383 400.5 L 383.5 397 Z " /><path fill="rgb(0,0,0)" stroke="rgb(0,0,0)" stroke-width="1" opacity="0.796078431372549" d="M 175.5 398 L 174.5 400 L 175.5 398 Z " /><path fill="rgb(0,0,0)" stroke="rgb(0,0,0)" stroke-width="1" opacity="0.796078431372549" d="M 380.5 399 L 382 401.5 L 381 401.5 L 380.5 399 Z " /><path fill="rgb(0,0,0)" stroke="rgb(0,0,0)" stroke-width="1" opacity="0.796078431372549" d="M 210.5 402 L 209.5 404 L 210.5 402 Z " /><path fill="rgb(0,0,0)" stroke="rgb(0,0,0)" stroke-width="1" opacity="0.796078431372549" d="M 228.5 402 L 229.5 404 L 228.5 402 Z " /><path fill="rgb(0,0,0)" stroke="rgb(0,0,0)" stroke-width="1" opacity="0.796078431372549" d="M 239.5 402 L 238.5 404 L 239.5 402 Z " /><path fill="rgb(0,0,0)" stroke="rgb(0,0,0)" stroke-width="1" opacity="0.796078431372549" d="M 217.5 403 L 216.5 405 L 217.5 403 Z " /><path fill="rgb(0,0,0)" stroke="rgb(0,0,0)" stroke-width="1" opacity="0.796078431372549" d="M 201.5 404 L 203 404.5 L 201 405.5 L 201.5 407 L 199 406.5 L 201.5 404 Z " /><path fill="rgb(0,0,0)" stroke="rgb(0,0,0)" stroke-width="1" opacity="0.796078431372549" d="M 204.5 404 L 208 404.5 L 204.5 405 L 204.5 404 Z " /><path fill="rgb(0,0,0)" stroke="rgb(0,0,0)" stroke-width="1" opacity="0.796078431372549" d="M 246.5 404 L 247.5 406 L 246.5 404 Z " /><path fill="rgb(0,0,0)" stroke="rgb(0,0,0)" stroke-width="1" opacity="0.796078431372549" d="M 171.5 405 L 170.5 407 L 171.5 405 Z " /><path fill="rgb(0,0,0)" stroke="rgb(0,0,0)" stroke-width="1" opacity="0.796078431372549" d="M 237.5 405 L 235.5 408 L 237.5 405 Z " /><path fill="rgb(0,0,0)" stroke="rgb(0,0,0)" stroke-width="1" opacity="0.796078431372549" d="M 219.5 406 L 220 409.5 L 219 409.5 L 219.5 406 Z " /><path fill="rgb(0,0,0)" stroke="rgb(0,0,0)" stroke-width="1" opacity="0.796078431372549" d="M 230.5 407 L 231 410.5 L 230 410.5 L 230.5 407 Z " /><path fill="rgb(0,0,0)" stroke="rgb(0,0,0)" stroke-width="1" opacity="0.796078431372549" d="M 113.5 408 L 116.5 412 L 113.5 408 Z " /><path fill="rgb(0,0,0)" stroke="rgb(0,0,0)" stroke-width="1" opacity="0.796078431372549" d="M 224 409 L 226 409 Q 224.5 412.7 227.5 412 L 230.5 416 Q 229.2 412.3 225 413 L 224 409 Z " /><path fill="rgb(0,0,0)" stroke="rgb(0,0,0)" stroke-width="1" opacity="0.796078431372549" d="M 234.5 409 L 235 412.5 L 234 412.5 L 234.5 409 Z " /><path fill="rgb(0,0,0)" stroke="rgb(0,0,0)" stroke-width="1" opacity="0.796078431372549" d="M 240.5 410 L 239.5 412 L 240.5 410 Z " /><path fill="rgb(0,0,0)" stroke="rgb(0,0,0)" stroke-width="1" opacity="0.796078431372549" d="M 219.5 411 L 220 413.5 L 219 413.5 L 219.5 411 Z " /><path fill="rgb(0,0,0)" stroke="rgb(0,0,0)" stroke-width="1" opacity="0.796078431372549" d="M 259.5 411 L 263.5 416 L 259.5 411 Z " /><path fill="rgb(0,0,0)" stroke="rgb(0,0,0)" stroke-width="1" opacity="0.796078431372549" d="M 131.5 414 L 135.5 419 L 131.5 414 Z " /><path fill="rgb(0,0,0)" stroke="rgb(0,0,0)" stroke-width="1" opacity="0.796078431372549" d="M 164.5 414 L 163.5 416 L 164.5 414 Z " /><path fill="rgb(0,0,0)" stroke="rgb(0,0,0)" stroke-width="1" opacity="0.796078431372549" d="M 225.5 414 L 226 417.5 L 225 417.5 L 225.5 414 Z " /><path fill="rgb(0,0,0)" stroke="rgb(0,0,0)" stroke-width="1" opacity="0.796078431372549" d="M 233.5 414 L 233 415.5 L 232.5 418 L 232 415.5 L 233.5 414 Z " /><path fill="rgb(0,0,0)" stroke="rgb(0,0,0)" stroke-width="1" opacity="0.796078431372549" d="M 236.5 416 L 238 418.5 L 235 418.5 L 236.5 416 Z " /><path fill="rgb(0,0,0)" stroke="rgb(0,0,0)" stroke-width="1" opacity="0.796078431372549" d="M 219.5 417 L 220 420.5 L 219 420.5 L 219.5 417 Z " /><path fill="rgb(0,0,0)" stroke="rgb(0,0,0)" stroke-width="1" opacity="0.796078431372549" d="M 257.5 418 L 258.5 426 L 260 425.5 Q 258 429.2 256 427.5 Q 256.8 429.8 254.5 429 L 257 425.5 L 257.5 418 Z " /><path fill="rgb(0,0,0)" stroke="rgb(0,0,0)" stroke-width="1" opacity="0.796078431372549" d="M 260.5 421 L 261.5 423 Q 258.7 423.7 260.5 421 Z " /><path fill="rgb(0,0,0)" stroke="rgb(0,0,0)" stroke-width="1" opacity="0.796078431372549" d="M 225.5 422 L 224.5 424 L 225.5 422 Z " /><path fill="rgb(0,0,0)" stroke="rgb(0,0,0)" stroke-width="1" opacity="0.796078431372549" d="M 262.5 424 L 265 426.5 L 267 432.5 L 265 433 Q 265.8 426.3 262.5 424 Z " /><path fill="rgb(0,0,0)" stroke="rgb(0,0,0)" stroke-width="1" opacity="0.796078431372549" d="M 265.5 424 L 266.5 426 L 265.5 424 Z " /><path fill="rgb(0,0,0)" stroke="rgb(0,0,0)" stroke-width="1" opacity="0.796078431372549" d="M 224.5 425 L 225 427.5 L 224 427.5 L 224.5 425 Z " /><path fill="rgb(0,0,0)" stroke="rgb(0,0,0)" stroke-width="1" opacity="0.796078431372549" d="M 267.5 427 L 268 430.5 L 267 430.5 L 267.5 427 Z " /><path fill="rgb(0,0,0)" stroke="rgb(0,0,0)" stroke-width="1" opacity="0.796078431372549" d="M 222.5 429 L 224 429.5 L 221 431.5 L 222.5 429 Z " /><path fill="rgb(0,0,0)" stroke="rgb(0,0,0)" stroke-width="1" opacity="1" d="M 42.5 78 L 50 84.5 Q 60.6 102.9 74.5 118 L 88.5 129 L 89 127.5 L 84 112.5 L 83 99.5 L 84.5 97 L 85 99 Q 87.7 97.9 87 100.5 Q 96.1 125.9 112.5 144 L 126.5 151 L 125 148.5 L 119 136.5 L 117 125.5 L 118 124.5 Q 116.5 113 119 105.5 L 121 100.5 L 124.5 97 L 127 102.5 L 132 127.5 L 142 151.5 Q 149 165.5 160.5 175 Q 162.8 175.8 162 173.5 L 155 154.5 L 155 143.5 L 159 127.5 L 164.5 120 Q 169 119 170 121.5 L 171 124.5 L 171 151.5 L 173 156.5 L 175 171.5 Q 179 187.7 188 198 Q 190.7 199.1 190 196.5 L 182 176.5 L 182 167.5 L 183 163.5 L 185.5 161 Q 188.1 160.2 187 163.5 L 188 164.5 L 188 182.5 L 187 184.5 L 191.5 197 Q 191.3 190.3 195.5 188 Q 199.3 187.3 200 189.5 L 203 195.5 L 219.5 213 Q 221.8 212.3 221 214.5 L 231.5 225 L 233.5 225 L 241.5 223 L 257.5 223 L 259 221.5 L 257.5 220 L 253.5 220 L 238 216 Q 239.1 213.3 236.5 214 L 236.5 213 L 238.5 214 L 268 214 Q 269.3 211 265.5 212 L 254 207.5 Q 253.3 205.3 255.5 206 L 256.5 205 L 264.5 205 L 271.5 207 L 278 207 Q 278.5 200.4 283.5 197 L 292.5 195 L 298 196 L 298 193.5 L 305.5 183 Q 309 180.5 316.5 182 L 320 178.5 L 325.5 169 L 332.5 167 L 339.5 169 L 349.5 154 L 358.5 152 L 366.5 155 Q 369.3 153.8 368 148.5 L 370.5 146 L 384.5 140 L 389.5 140 L 396.5 137 L 400 133.5 L 406 116.5 L 410.5 110 L 417.5 110 L 421 112 L 420 125.5 L 410 157.5 L 412 156.5 L 426 125.5 L 441 103.5 L 446.5 98 L 451.5 98 L 459 103.5 L 462 111.5 L 443 151.5 L 444.5 152 Q 457.8 129.8 476.5 113 L 486.5 107 Q 491.3 109.1 492 115.5 L 489 124.5 Q 476.6 141.3 468 161 L 484.5 148 L 489.5 147 L 494 151.5 L 496 159.5 L 489 172.5 L 472 192.5 Q 470.5 212.5 459.5 223 L 451.5 230 L 437.5 236 L 415 239 L 409.5 246 Q 402.7 252.2 392.5 255 L 375.5 257 L 374.5 256 L 366.5 256 L 357 264.5 L 353.5 269 L 335.5 282 L 332 283 Q 330.9 285.7 333.5 285 L 348.5 291 L 369 306.5 L 371 312 Q 373.7 313.1 373 310.5 L 374 310.5 L 375 318.5 L 376.5 320 Q 379.1 319.2 378 322.5 L 379 323.5 Q 377.5 333 380 338.5 L 379 339.5 L 378 362.5 L 383 381.5 L 384 396.5 L 382.5 402 L 380.5 399 L 377.5 398 L 370 390.5 L 354.5 369 Q 341.6 362.9 332.5 353 L 314.5 351 L 306.5 353 L 284.5 365 L 258.5 374 L 253.5 374 L 249.5 373 L 235 379 Q 236.8 374.1 230.5 376 L 226.5 377 Q 224.7 374.2 218.5 376 L 220.5 379 Q 232.4 389.5 248 395 Q 246.9 397.7 249.5 397 L 266 420.5 L 265 424.5 Q 268.3 425.7 267 431.5 L 266 431.5 L 265 426.5 L 260.5 421 Q 260.6 426.6 256.5 428 L 258 425.5 Q 258.9 418.7 257 416 L 251 415 L 249 407.5 L 246.5 404 L 244.5 403 Q 241.3 404.8 241 409.5 L 236 414.5 L 236 417.5 L 236.5 419 L 234 413.5 L 235 408.5 L 240 402.5 L 240 398 L 237.5 398 L 212.5 380 L 204.5 376 L 204 377.5 L 218 390.5 L 226.5 401 Q 228.8 400.3 228 402.5 L 230 404.5 L 232 419.5 L 231 419.5 Q 232 413 227.5 412 Q 224.5 412.7 226 409 L 224 409 L 226 421.5 Q 222.7 423.2 223.5 429 L 223 424 L 220 423.5 L 220 411.5 L 220 409.5 Q 220.6 404.4 217.5 403 L 214 405 L 212.5 408 L 206.5 409 L 201.5 406 L 200 406.5 L 203.5 404 L 207.5 405 L 213 402 L 215 397.5 L 200.5 383 L 194 380 L 193.5 382 L 190 379.5 L 189.5 378 L 183 382.5 Q 177.9 388.4 176 397.5 L 165.5 414 L 158.5 418 L 155.5 418 Q 154 415.5 148.5 417 L 141.5 420 L 137.5 420 L 129.5 413 Q 128 415.5 122.5 414 Q 116 412.5 113 407.5 L 114 403 L 105.5 406 L 96 400.5 Q 95.2 392.7 99 389.5 L 97.5 389 L 93.5 392 L 89.5 392 L 85 390 L 82 385.5 L 82 377.5 L 85 370 L 82.5 369 L 80.5 369 Q 74.3 370.3 73 366.5 L 71 361.5 L 70 350.5 L 72.5 346 L 79.5 346 L 102.5 342 L 124.5 335 L 194 300.5 L 192.5 300 L 176.5 306 Q 171.8 304.8 170.5 307 L 152.5 307 L 147.5 306 L 144 303.5 L 142.5 301 L 135.5 301 L 135 298.5 L 130.5 296 Q 122.3 297.3 119 293.5 Q 120.8 287.8 114.5 290 L 107 287 L 106 280 L 111 279 Q 112.3 276 108.5 277 L 87 268.5 L 88 265 Q 91 262.3 97 263 Q 98.1 260.3 95.5 261 Q 83.8 256.8 75 249.5 L 72.5 245 Q 70.3 245.8 71 243.5 L 73.5 240 L 78 239.5 L 61 229 Q 61.5 224.3 65.5 222 L 70 220.5 L 50 205 L 47 199 L 44 198.5 L 45 196 L 52 192.5 L 30 175.5 Q 28.9 166.9 34.5 165 Q 41.5 166.5 41 163.5 L 25.5 147 L 23 145.5 Q 23.8 143.3 21.5 144 L 16 137.5 L 18 134 L 22.5 133 L 36 141 L 36.5 144 L 38.5 143 L 57.5 159 L 68.5 166 L 71.5 166 L 70.5 164 L 55 152 L 55 150 Q 52.3 151.1 53 148.5 L 36.5 130 L 34 128.5 L 32.5 126 L 29 123.5 Q 29.8 121.3 27.5 122 L 22 117.5 Q 22.3 110.3 27.5 108 L 30.5 108 L 38.5 112 L 54 124 L 37 90.5 L 37 85.5 L 42.5 78 Z M 244 232 Q 242 235 245 234 L 244 232 Z M 358 353 Q 357 357 360 358 L 363 357 L 363 353 L 358 353 Z " /></svg>